<?xml version="1.0" encoding="UTF-8" standalone="no"?><!DOCTYPE svg PUBLIC "-//W3C//DTD SVG 1.1//EN" "http://www.w3.org/Graphics/SVG/1.1/DTD/svg11.dtd"><!-- Generated by graphviz version 2.40.1 (20161225.0304)
 --><!-- Title: mygraph Pages: 1 --><svg xmlns="http://www.w3.org/2000/svg" xmlns:xlink="http://www.w3.org/1999/xlink" width="2345pt" height="707pt" viewBox="0.00 0.00 2344.58 707.00">
<g id="graph0" class="graph" transform="scale(1 1) rotate(0) translate(4 703)">
<title>mygraph</title>
<polygon fill="#ffffff" stroke="transparent" points="-4,4 -4,-703 2340.5834,-703 2340.5834,4 -4,4"/>
<!-- //chart:yaku_helm -->
<g id="node1" class="node">
<title>//chart:yaku_helm</title>
<polygon fill="#00ff00" stroke="#00ff00" points="1304.9581,-699 1187.2327,-699 1187.2327,-663 1304.9581,-663 1304.9581,-699"/>
<text text-anchor="middle" x="1246.0954" y="-676.8" font-family="Times,serif" font-size="14.00" fill="#000000">//chart:yaku_helm</text>
</g>
<!-- //chart:templates/_helpers.tpl\n//chart:values.yaml\n//chart:Chart.yaml\n//chart:crds/argo&#45;workflows&#45;crds.yaml -->
<g id="node2" class="node">
<title>//chart:templates/_helpers.tpl\n//chart:values.yaml\n//chart:Chart.yaml\n//chart:crds/argo-workflows-crds.yaml</title>
<polygon fill="none" stroke="#000000" points="980.8397,-626.1003 749.3511,-626.1003 749.3511,-550.6997 980.8397,-550.6997 980.8397,-626.1003"/>
<text text-anchor="middle" x="865.0954" y="-609.4" font-family="Times,serif" font-size="14.00" fill="#000000">//chart:templates/_helpers.tpl</text>
<text text-anchor="middle" x="865.0954" y="-592.6" font-family="Times,serif" font-size="14.00" fill="#000000">//chart:values.yaml</text>
<text text-anchor="middle" x="865.0954" y="-575.8" font-family="Times,serif" font-size="14.00" fill="#000000">//chart:Chart.yaml</text>
<text text-anchor="middle" x="865.0954" y="-559" font-family="Times,serif" font-size="14.00" fill="#000000">//chart:crds/argo-workflows-crds.yaml</text>
</g>
<!-- //chart:yaku_helm&#45;&gt;//chart:templates/_helpers.tpl\n//chart:values.yaml\n//chart:Chart.yaml\n//chart:crds/argo&#45;workflows&#45;crds.yaml -->
<g id="edge1" class="edge">
<title>//chart:yaku_helm-&gt;//chart:templates/_helpers.tpl\n//chart:values.yaml\n//chart:Chart.yaml\n//chart:crds/argo-workflows-crds.yaml</title>
<path fill="none" stroke="#000000" d="M1187.0617,-669.7217C1137.2088,-659.8782 1063.7643,-644.631 990.9195,-626.1528"/>
<polygon fill="#000000" stroke="#000000" points="991.669,-622.7319 981.1136,-623.6446 989.9343,-629.5136 991.669,-622.7319"/>
</g>
<!-- @helm_dep_argo_workflows//:helm_dep_argo_workflows -->
<g id="node3" class="node">
<title>@helm_dep_argo_workflows//:helm_dep_argo_workflows</title>
<polygon fill="none" stroke="#000000" points="1347.5705,-606.4 998.6203,-606.4 998.6203,-570.4 1347.5705,-570.4 1347.5705,-606.4"/>
<text text-anchor="middle" x="1173.0954" y="-584.2" font-family="Times,serif" font-size="14.00" fill="#000000">@helm_dep_argo_workflows//:helm_dep_argo_workflows</text>
</g>
<!-- //chart:yaku_helm&#45;&gt;@helm_dep_argo_workflows//:helm_dep_argo_workflows -->
<g id="edge2" class="edge">
<title>//chart:yaku_helm-&gt;@helm_dep_argo_workflows//:helm_dep_argo_workflows</title>
<path fill="none" stroke="#000000" d="M1231.6729,-662.7052C1220.8747,-649.0077 1205.9471,-630.0721 1193.8639,-614.7447"/>
<polygon fill="#000000" stroke="#000000" points="1196.4275,-612.3431 1187.4879,-606.6568 1190.9303,-616.6768 1196.4275,-612.3431"/>
</g>
<!-- //core&#45;image:push&#45;image -->
<g id="node4" class="node">
<title>//core-image:push-image</title>
<polygon fill="#00ff00" stroke="#00ff00" points="1521.0436,-606.4 1365.1472,-606.4 1365.1472,-570.4 1521.0436,-570.4 1521.0436,-606.4"/>
<text text-anchor="middle" x="1443.0954" y="-584.2" font-family="Times,serif" font-size="14.00" fill="#000000">//core-image:push-image</text>
</g>
<!-- //chart:yaku_helm&#45;&gt;//core&#45;image:push&#45;image -->
<g id="edge3" class="edge">
<title>//chart:yaku_helm-&gt;//core-image:push-image</title>
<path fill="none" stroke="#000000" d="M1284.5466,-662.926C1316.2755,-648.0118 1361.4467,-626.779 1395.463,-610.7896"/>
<polygon fill="#000000" stroke="#000000" points="1397.18,-613.85 1404.7411,-606.4284 1394.2022,-607.515 1397.18,-613.85"/>
</g>
<!-- @helm_dep_minio//:helm_dep_minio -->
<g id="node5" class="node">
<title>@helm_dep_minio//:helm_dep_minio</title>
<polygon fill="none" stroke="#000000" points="1873.4244,-606.4 1642.7664,-606.4 1642.7664,-570.4 1873.4244,-570.4 1873.4244,-606.4"/>
<text text-anchor="middle" x="1758.0954" y="-584.2" font-family="Times,serif" font-size="14.00" fill="#000000">@helm_dep_minio//:helm_dep_minio</text>
</g>
<!-- //chart:yaku_helm&#45;&gt;@helm_dep_minio//:helm_dep_minio -->
<g id="edge4" class="edge">
<title>//chart:yaku_helm-&gt;@helm_dep_minio//:helm_dep_minio</title>
<path fill="none" stroke="#000000" d="M1305.0782,-670.3324C1388.7579,-655.1981 1543.4276,-627.2247 1648.5117,-608.2192"/>
<polygon fill="#000000" stroke="#000000" points="1649.3048,-611.6327 1658.5223,-606.4087 1648.059,-604.7444 1649.3048,-611.6327"/>
</g>
<!-- @helm_dep_argo_workflows//:argo&#45;workflows -->
<g id="node18" class="node">
<title>@helm_dep_argo_workflows//:argo-workflows</title>
<polygon fill="none" stroke="#000000" points="669.0204,-513.8 385.1704,-513.8 385.1704,-477.8 669.0204,-477.8 669.0204,-513.8"/>
<text text-anchor="middle" x="527.0954" y="-491.6" font-family="Times,serif" font-size="14.00" fill="#000000">@helm_dep_argo_workflows//:argo-workflows</text>
</g>
<!-- @helm_dep_argo_workflows//:helm_dep_argo_workflows&#45;&gt;@helm_dep_argo_workflows//:argo&#45;workflows -->
<g id="edge17" class="edge">
<title>@helm_dep_argo_workflows//:helm_dep_argo_workflows-&gt;@helm_dep_argo_workflows//:argo-workflows</title>
<path fill="none" stroke="#000000" d="M1092.7415,-570.3619C1060.8917,-563.6132 1023.8743,-556.2665 990.0954,-550.8 886.792,-534.0823 769.7498,-520.2232 679.1893,-510.5989"/>
<polygon fill="#000000" stroke="#000000" points="679.4309,-507.105 669.1184,-509.5345 678.6951,-514.0663 679.4309,-507.105"/>
</g>
<!-- //core&#45;image:transitioned_image -->
<g id="node6" class="node">
<title>//core-image:transitioned_image</title>
<polygon fill="#00ff00" stroke="#00ff00" points="1337.0352,-513.8 1139.1556,-513.8 1139.1556,-477.8 1337.0352,-477.8 1337.0352,-513.8"/>
<text text-anchor="middle" x="1238.0954" y="-491.6" font-family="Times,serif" font-size="14.00" fill="#000000">//core-image:transitioned_image</text>
</g>
<!-- //core&#45;image:push&#45;image&#45;&gt;//core&#45;image:transitioned_image -->
<g id="edge5" class="edge">
<title>//core-image:push-image-&gt;//core-image:transitioned_image</title>
<path fill="none" stroke="#000000" d="M1403.0827,-570.326C1369.9243,-555.3481 1322.6578,-533.9974 1287.2089,-517.9849"/>
<polygon fill="#000000" stroke="#000000" points="1288.5614,-514.7554 1278.0072,-513.8284 1285.6798,-521.1348 1288.5614,-514.7554"/>
</g>
<!-- //core&#45;image:stamped -->
<g id="node7" class="node">
<title>//core-image:stamped</title>
<polygon fill="none" stroke="#000000" points="1748.8833,-459.8 1611.3075,-459.8 1611.3075,-423.8 1748.8833,-423.8 1748.8833,-459.8"/>
<text text-anchor="middle" x="1680.0954" y="-437.6" font-family="Times,serif" font-size="14.00" fill="#000000">//core-image:stamped</text>
</g>
<!-- //core&#45;image:push&#45;image&#45;&gt;//core&#45;image:stamped -->
<g id="edge6" class="edge">
<title>//core-image:push-image-&gt;//core-image:stamped</title>
<path fill="none" stroke="#000000" d="M1472.6324,-570.1294C1515.5313,-543.5937 1595.0871,-494.3832 1642.2367,-465.2181"/>
<polygon fill="#000000" stroke="#000000" points="1644.2674,-468.0775 1650.9306,-459.8403 1640.5849,-462.1244 1644.2674,-468.0775"/>
</g>
<!-- @helm_dep_minio//:minio -->
<g id="node16" class="node">
<title>@helm_dep_minio//:minio</title>
<polygon fill="none" stroke="#000000" points="1897.2138,-513.8 1728.977,-513.8 1728.977,-477.8 1897.2138,-477.8 1897.2138,-513.8"/>
<text text-anchor="middle" x="1813.0954" y="-491.6" font-family="Times,serif" font-size="14.00" fill="#000000">@helm_dep_minio//:minio</text>
</g>
<!-- @helm_dep_minio//:helm_dep_minio&#45;&gt;@helm_dep_minio//:minio -->
<g id="edge15" class="edge">
<title>@helm_dep_minio//:helm_dep_minio-&gt;@helm_dep_minio//:minio</title>
<path fill="none" stroke="#000000" d="M1768.9616,-570.1052C1776.9466,-556.6614 1787.9286,-538.1717 1796.94,-522.9998"/>
<polygon fill="#000000" stroke="#000000" points="1800.1543,-524.4419 1802.2517,-514.0568 1794.1358,-520.8672 1800.1543,-524.4419"/>
</g>
<!-- @platforms//cpu:arm64 -->
<g id="node9" class="node">
<title>@platforms//cpu:arm64</title>
<polygon fill="none" stroke="#000000" points="550.2925,-206.2 399.8983,-206.2 399.8983,-170.2 550.2925,-170.2 550.2925,-206.2"/>
<text text-anchor="middle" x="475.0954" y="-184" font-family="Times,serif" font-size="14.00" fill="#000000">@platforms//cpu:arm64</text>
</g>
<!-- //core&#45;image:transitioned_image&#45;&gt;@platforms//cpu:arm64 -->
<g id="edge8" class="edge">
<title>//core-image:transitioned_image-&gt;@platforms//cpu:arm64</title>
<path fill="none" stroke="#000000" d="M1178.7785,-477.7607C1161.6745,-472.2825 1143.0555,-466.051 1126.0954,-459.8 897.9963,-375.7289 632.2089,-258.7308 524.3344,-210.4211"/>
<polygon fill="#000000" stroke="#000000" points="525.5607,-207.1353 515.004,-206.2375 522.6967,-213.5226 525.5607,-207.1353"/>
</g>
<!-- //core&#45;image:image -->
<g id="node10" class="node">
<title>//core-image:image</title>
<polygon fill="#40e0d0" stroke="#40e0d0" points="1300.4385,-405.8 1175.7523,-405.8 1175.7523,-369.8 1300.4385,-369.8 1300.4385,-405.8"/>
<text text-anchor="middle" x="1238.0954" y="-383.6" font-family="Times,serif" font-size="14.00" fill="#000000">//core-image:image</text>
</g>
<!-- //core&#45;image:transitioned_image&#45;&gt;//core&#45;image:image -->
<g id="edge9" class="edge">
<title>//core-image:transitioned_image-&gt;//core-image:image</title>
<path fill="none" stroke="#000000" d="M1238.0954,-477.4793C1238.0954,-460.621 1238.0954,-435.3651 1238.0954,-415.947"/>
<polygon fill="#000000" stroke="#000000" points="1241.5955,-415.8501 1238.0954,-405.8502 1234.5955,-415.8502 1241.5955,-415.8501"/>
</g>
<!-- @platforms//cpu:x86_64 -->
<g id="node11" class="node">
<title>@platforms//cpu:x86_64</title>
<polygon fill="none" stroke="#000000" points="1218.5272,-206.2 1061.6636,-206.2 1061.6636,-170.2 1218.5272,-170.2 1218.5272,-206.2"/>
<text text-anchor="middle" x="1140.0954" y="-184" font-family="Times,serif" font-size="14.00" fill="#000000">@platforms//cpu:x86_64</text>
</g>
<!-- //core&#45;image:transitioned_image&#45;&gt;@platforms//cpu:x86_64 -->
<g id="edge10" class="edge">
<title>//core-image:transitioned_image-&gt;@platforms//cpu:x86_64</title>
<path fill="none" stroke="#000000" d="M1205.9803,-477.7931C1156.3809,-447.8962 1063.0127,-382.794 1026.0954,-297.8 1019.7211,-283.1246 1018.4421,-275.8509 1026.0954,-261.8 1038.3764,-239.2531 1060.862,-222.5645 1082.6377,-210.8325"/>
<polygon fill="#000000" stroke="#000000" points="1084.2608,-213.9336 1091.5694,-206.2631 1081.0727,-207.7017 1084.2608,-213.9336"/>
</g>
<!-- @platforms//cpu:aarch64 -->
<g id="node12" class="node">
<title>@platforms//cpu:aarch64</title>
<polygon fill="none" stroke="#000000" points="554.3312,-111.8 395.8596,-111.8 395.8596,-75.8 554.3312,-75.8 554.3312,-111.8"/>
<text text-anchor="middle" x="475.0954" y="-89.6" font-family="Times,serif" font-size="14.00" fill="#000000">@platforms//cpu:aarch64</text>
</g>
<!-- //core&#45;image:transitioned_image&#45;&gt;@platforms//cpu:aarch64 -->
<g id="edge11" class="edge">
<title>//core-image:transitioned_image-&gt;@platforms//cpu:aarch64</title>
<path fill="none" stroke="#000000" d="M1138.7542,-493.6243C911.284,-487.3221 372.0954,-464.3135 372.0954,-387.8 372.0954,-387.8 372.0954,-387.8 372.0954,-188.2 372.0954,-156.6007 398.7682,-132.7162 424.9673,-116.8776"/>
<polygon fill="#000000" stroke="#000000" points="426.8613,-119.8262 433.7948,-111.8151 423.3789,-113.7538 426.8613,-119.8262"/>
</g>
<!-- @platforms//os:linux -->
<g id="node13" class="node">
<title>@platforms//os:linux</title>
<polygon fill="none" stroke="#000000" points="1454.0385,-405.8 1318.1523,-405.8 1318.1523,-369.8 1454.0385,-369.8 1454.0385,-405.8"/>
<text text-anchor="middle" x="1386.0954" y="-383.6" font-family="Times,serif" font-size="14.00" fill="#000000">@platforms//os:linux</text>
</g>
<!-- //core&#45;image:transitioned_image&#45;&gt;@platforms//os:linux -->
<g id="edge12" class="edge">
<title>//core-image:transitioned_image-&gt;@platforms//os:linux</title>
<path fill="none" stroke="#000000" d="M1262.8673,-477.7232C1287.626,-459.6561 1325.8401,-431.7701 1353.1457,-411.8443"/>
<polygon fill="#000000" stroke="#000000" points="1355.2279,-414.6578 1361.2427,-405.9357 1351.1016,-409.0032 1355.2279,-414.6578"/>
</g>
<!-- @rules_go//go/toolchain:cgo_off -->
<g id="node14" class="node">
<title>@rules_go//go/toolchain:cgo_off</title>
<polygon fill="none" stroke="#000000" points="1674.3978,-405.8 1471.793,-405.8 1471.793,-369.8 1674.3978,-369.8 1674.3978,-405.8"/>
<text text-anchor="middle" x="1573.0954" y="-383.6" font-family="Times,serif" font-size="14.00" fill="#000000">@rules_go//go/toolchain:cgo_off</text>
</g>
<!-- //core&#45;image:transitioned_image&#45;&gt;@rules_go//go/toolchain:cgo_off -->
<g id="edge13" class="edge">
<title>//core-image:transitioned_image-&gt;@rules_go//go/toolchain:cgo_off</title>
<path fill="none" stroke="#000000" d="M1294.1669,-477.7232C1352.9541,-458.7709 1445.2552,-429.0142 1507.4131,-408.9752"/>
<polygon fill="#000000" stroke="#000000" points="1508.6768,-412.2453 1517.1205,-405.8456 1506.5289,-405.5829 1508.6768,-412.2453"/>
</g>
<!-- //core&#45;image:_stamped.tmpl -->
<g id="node8" class="node">
<title>//core-image:_stamped.tmpl</title>
<polygon fill="none" stroke="#000000" points="2147.0554,-351.8 1973.1354,-351.8 1973.1354,-315.8 2147.0554,-315.8 2147.0554,-351.8"/>
<text text-anchor="middle" x="2060.0954" y="-329.6" font-family="Times,serif" font-size="14.00" fill="#000000">//core-image:_stamped.tmpl</text>
</g>
<!-- //core&#45;image:stamped&#45;&gt;//core&#45;image:_stamped.tmpl -->
<g id="edge7" class="edge">
<title>//core-image:stamped-&gt;//core-image:_stamped.tmpl</title>
<path fill="none" stroke="#000000" d="M1685.1596,-423.6959C1690.9175,-406.7547 1702.078,-382.2453 1721.0954,-369.8 1741.0445,-356.745 1870.1784,-345.8623 1963.1501,-339.5891"/>
<polygon fill="#000000" stroke="#000000" points="1963.4169,-343.0792 1973.162,-338.9219 1962.9513,-336.0947 1963.4169,-343.0792"/>
</g>
<!-- @bazel_tools//src/conditions:host_windows -->
<g id="node21" class="node">
<title>@bazel_tools//src/conditions:host_windows</title>
<polygon fill="none" stroke="#000000" points="1993.8451,-206.2 1730.3457,-206.2 1730.3457,-170.2 1993.8451,-170.2 1993.8451,-206.2"/>
<text text-anchor="middle" x="1862.0954" y="-184" font-family="Times,serif" font-size="14.00" fill="#000000">@bazel_tools//src/conditions:host_windows</text>
</g>
<!-- //core&#45;image:_stamped.tmpl&#45;&gt;@bazel_tools//src/conditions:host_windows -->
<g id="edge20" class="edge">
<title>//core-image:_stamped.tmpl-&gt;@bazel_tools//src/conditions:host_windows</title>
<path fill="none" stroke="#000000" d="M2067.3141,-315.5275C2072.2165,-299.8534 2076.0293,-277.3946 2065.0954,-261.8 2050.8459,-241.4766 1997.0212,-222.4854 1948.3764,-208.8862"/>
<polygon fill="#000000" stroke="#000000" points="1949.2995,-205.5102 1938.7298,-206.2395 1947.4473,-212.2607 1949.2995,-205.5102"/>
</g>
<!-- @platforms//cpu:arm64&#45;&gt;@platforms//cpu:aarch64 -->
<g id="edge27" class="edge">
<title>@platforms//cpu:arm64-&gt;@platforms//cpu:aarch64</title>
<path fill="none" stroke="#000000" d="M475.0954,-169.9987C475.0954,-156.4169 475.0954,-137.6048 475.0954,-122.0711"/>
<polygon fill="#000000" stroke="#000000" points="478.5955,-121.9454 475.0954,-111.9454 471.5955,-121.9454 478.5955,-121.9454"/>
</g>
<!-- //core&#45;image:app_layer -->
<g id="node22" class="node">
<title>//core-image:app_layer</title>
<polygon fill="#40e0d0" stroke="#40e0d0" points="1408.9231,-297.8 1263.2677,-297.8 1263.2677,-261.8 1408.9231,-261.8 1408.9231,-297.8"/>
<text text-anchor="middle" x="1336.0954" y="-275.6" font-family="Times,serif" font-size="14.00" fill="#000000">//core-image:app_layer</text>
</g>
<!-- //core&#45;image:image&#45;&gt;//core&#45;image:app_layer -->
<g id="edge21" class="edge">
<title>//core-image:image-&gt;//core-image:app_layer</title>
<path fill="none" stroke="#000000" d="M1254.7198,-369.4793C1270.7253,-351.8405 1295.0728,-325.0086 1312.9665,-305.289"/>
<polygon fill="#000000" stroke="#000000" points="1315.5886,-307.6078 1319.7166,-297.8502 1310.4046,-302.9038 1315.5886,-307.6078"/>
</g>
<!-- //core&#45;image:_image_write_entrypoint -->
<g id="node23" class="node">
<title>//core-image:_image_write_entrypoint</title>
<polygon fill="none" stroke="#000000" points="1659.2485,-297.8 1426.9423,-297.8 1426.9423,-261.8 1659.2485,-261.8 1659.2485,-297.8"/>
<text text-anchor="middle" x="1543.0954" y="-275.6" font-family="Times,serif" font-size="14.00" fill="#000000">//core-image:_image_write_entrypoint</text>
</g>
<!-- //core&#45;image:image&#45;&gt;//core&#45;image:_image_write_entrypoint -->
<g id="edge22" class="edge">
<title>//core-image:image-&gt;//core-image:_image_write_entrypoint</title>
<path fill="none" stroke="#000000" d="M1289.1455,-369.7232C1342.448,-350.8489 1426.0124,-321.2589 1482.595,-301.2231"/>
<polygon fill="#000000" stroke="#000000" points="1483.875,-304.4829 1492.1332,-297.8456 1481.5384,-297.8843 1483.875,-304.4829"/>
</g>
<!-- @distroless_base//:distroless_base -->
<g id="node24" class="node">
<title>@distroless_base//:distroless_base</title>
<polygon fill="none" stroke="#000000" points="1245.169,-297.8 1035.0218,-297.8 1035.0218,-261.8 1245.169,-261.8 1245.169,-297.8"/>
<text text-anchor="middle" x="1140.0954" y="-275.6" font-family="Times,serif" font-size="14.00" fill="#000000">@distroless_base//:distroless_base</text>
</g>
<!-- //core&#45;image:image&#45;&gt;@distroless_base//:distroless_base -->
<g id="edge23" class="edge">
<title>//core-image:image-&gt;@distroless_base//:distroless_base</title>
<path fill="none" stroke="#000000" d="M1221.471,-369.4793C1205.4655,-351.8405 1181.118,-325.0086 1163.2243,-305.289"/>
<polygon fill="#000000" stroke="#000000" points="1165.7862,-302.9038 1156.4742,-297.8502 1160.6022,-307.6078 1165.7862,-302.9038"/>
</g>
<!-- @platforms//cpu:cpu -->
<g id="node26" class="node">
<title>@platforms//cpu:cpu</title>
<polygon fill="none" stroke="#000000" points="714.2417,-36 579.9491,-36 579.9491,0 714.2417,0 714.2417,-36"/>
<text text-anchor="middle" x="647.0954" y="-13.8" font-family="Times,serif" font-size="14.00" fill="#000000">@platforms//cpu:cpu</text>
</g>
<!-- @platforms//cpu:x86_64&#45;&gt;@platforms//cpu:cpu -->
<g id="edge29" class="edge">
<title>@platforms//cpu:x86_64-&gt;@platforms//cpu:cpu</title>
<path fill="none" stroke="#000000" d="M1087.8025,-170.1468C996.1892,-138.5188 807.1094,-73.2422 709.0776,-39.3983"/>
<polygon fill="#000000" stroke="#000000" points="710.1889,-36.0793 699.5941,-36.1243 707.9045,-42.6961 710.1889,-36.0793"/>
</g>
<!-- @platforms//cpu:aarch64&#45;&gt;@platforms//cpu:cpu -->
<g id="edge28" class="edge">
<title>@platforms//cpu:aarch64-&gt;@platforms//cpu:cpu</title>
<path fill="none" stroke="#000000" d="M516.2937,-75.644C540.5465,-64.9558 571.3946,-51.3612 597.0416,-40.0586"/>
<polygon fill="#000000" stroke="#000000" points="598.494,-43.2434 606.2333,-36.0078 595.671,-36.8379 598.494,-43.2434"/>
</g>
<!-- @platforms//os:os -->
<g id="node17" class="node">
<title>@platforms//os:os</title>
<polygon fill="none" stroke="#000000" points="1796.7012,-297.8 1677.4896,-297.8 1677.4896,-261.8 1796.7012,-261.8 1796.7012,-297.8"/>
<text text-anchor="middle" x="1737.0954" y="-275.6" font-family="Times,serif" font-size="14.00" fill="#000000">@platforms//os:os</text>
</g>
<!-- @platforms//os:linux&#45;&gt;@platforms//os:os -->
<g id="edge16" class="edge">
<title>@platforms//os:linux-&gt;@platforms//os:os</title>
<path fill="none" stroke="#000000" d="M1444.8449,-369.7232C1506.5666,-350.7319 1603.5475,-320.8917 1668.6776,-300.8516"/>
<polygon fill="#000000" stroke="#000000" points="1669.9186,-304.1318 1678.447,-297.8456 1667.8599,-297.4413 1669.9186,-304.1318"/>
</g>
<!-- @rules_go//go/toolchain:cgo_constraint -->
<g id="node15" class="node">
<title>@rules_go//go/toolchain:cgo_constraint</title>
<polygon fill="none" stroke="#000000" points="2055.7827,-297.8 1814.4081,-297.8 1814.4081,-261.8 2055.7827,-261.8 2055.7827,-297.8"/>
<text text-anchor="middle" x="1935.0954" y="-275.6" font-family="Times,serif" font-size="14.00" fill="#000000">@rules_go//go/toolchain:cgo_constraint</text>
</g>
<!-- @rules_go//go/toolchain:cgo_off&#45;&gt;@rules_go//go/toolchain:cgo_constraint -->
<g id="edge14" class="edge">
<title>@rules_go//go/toolchain:cgo_off-&gt;@rules_go//go/toolchain:cgo_constraint</title>
<path fill="none" stroke="#000000" d="M1633.6861,-369.7232C1697.4728,-350.6929 1797.7732,-320.7691 1864.9468,-300.7283"/>
<polygon fill="#000000" stroke="#000000" points="1866.0271,-304.0585 1874.6091,-297.8456 1864.0258,-297.3507 1866.0271,-304.0585"/>
</g>
<!-- @helm_dep_minio//:minio&#45;5.2.0.tgz -->
<g id="node20" class="node">
<title>@helm_dep_minio//:minio-5.2.0.tgz</title>
<polygon fill="none" stroke="#000000" points="1951.9799,-405.8 1730.2109,-405.8 1730.2109,-369.8 1951.9799,-369.8 1951.9799,-405.8"/>
<text text-anchor="middle" x="1841.0954" y="-383.6" font-family="Times,serif" font-size="14.00" fill="#000000">@helm_dep_minio//:minio-5.2.0.tgz</text>
</g>
<!-- @helm_dep_minio//:minio&#45;&gt;@helm_dep_minio//:minio&#45;5.2.0.tgz -->
<g id="edge19" class="edge">
<title>@helm_dep_minio//:minio-&gt;@helm_dep_minio//:minio-5.2.0.tgz</title>
<path fill="none" stroke="#000000" d="M1817.8452,-477.4793C1822.2361,-460.5429 1828.8244,-435.1311 1833.8679,-415.6777"/>
<polygon fill="#000000" stroke="#000000" points="1837.294,-416.4085 1836.4157,-405.8502 1830.518,-414.6517 1837.294,-416.4085"/>
</g>
<!-- @helm_dep_argo_workflows//:argo&#45;workflows&#45;0.41.4.tgz -->
<g id="node19" class="node">
<title>@helm_dep_argo_workflows//:argo-workflows-0.41.4.tgz</title>
<polygon fill="none" stroke="#000000" points="344.2863,-405.8 -.0955,-405.8 -.0955,-369.8 344.2863,-369.8 344.2863,-405.8"/>
<text text-anchor="middle" x="172.0954" y="-383.6" font-family="Times,serif" font-size="14.00" fill="#000000">@helm_dep_argo_workflows//:argo-workflows-0.41.4.tgz</text>
</g>
<!-- @helm_dep_argo_workflows//:argo&#45;workflows&#45;&gt;@helm_dep_argo_workflows//:argo&#45;workflows&#45;0.41.4.tgz -->
<g id="edge18" class="edge">
<title>@helm_dep_argo_workflows//:argo-workflows-&gt;@helm_dep_argo_workflows//:argo-workflows-0.41.4.tgz</title>
<path fill="none" stroke="#000000" d="M429.4605,-477.7714C405.9095,-472.6631 380.9511,-466.6107 358.0954,-459.8 311.3356,-445.8663 259.6996,-425.4579 222.7219,-409.924"/>
<polygon fill="#000000" stroke="#000000" points="223.7473,-406.5575 213.1738,-405.8844 221.0198,-413.0042 223.7473,-406.5575"/>
</g>
<!-- @bazel_tools//src/conditions:host_windows_arm64_constraint\n@bazel_tools//src/conditions:host_windows_x64_constraint -->
<g id="node27" class="node">
<title>@bazel_tools//src/conditions:host_windows_arm64_constraint\n@bazel_tools//src/conditions:host_windows_x64_constraint</title>
<polygon fill="none" stroke="#000000" points="2046.3171,-114.4019 1677.8737,-114.4019 1677.8737,-73.1981 2046.3171,-73.1981 2046.3171,-114.4019"/>
<text text-anchor="middle" x="1862.0954" y="-98" font-family="Times,serif" font-size="14.00" fill="#000000">@bazel_tools//src/conditions:host_windows_arm64_constraint</text>
<text text-anchor="middle" x="1862.0954" y="-81.2" font-family="Times,serif" font-size="14.00" fill="#000000">@bazel_tools//src/conditions:host_windows_x64_constraint</text>
</g>
<!-- @bazel_tools//src/conditions:host_windows&#45;&gt;@bazel_tools//src/conditions:host_windows_arm64_constraint\n@bazel_tools//src/conditions:host_windows_x64_constraint -->
<g id="edge31" class="edge">
<title>@bazel_tools//src/conditions:host_windows-&gt;@bazel_tools//src/conditions:host_windows_arm64_constraint\n@bazel_tools//src/conditions:host_windows_x64_constraint</title>
<path fill="none" stroke="#000000" d="M1862.0954,-169.9987C1862.0954,-157.2373 1862.0954,-139.8584 1862.0954,-124.9201"/>
<polygon fill="#000000" stroke="#000000" points="1865.5955,-124.5749 1862.0954,-114.5749 1858.5955,-124.5749 1865.5955,-124.5749"/>
<text text-anchor="middle" x="2099.3394" y="-136.8" font-family="Times,serif" font-size="14.00" fill="#000000">@@bazel_tools//src/conditions:host_windows_arm64_constraint//conditions:default</text>
</g>
<!-- @rules_pkg//pkg/private:private_stamp_detect\n//onyx/cmd/cli:onyx -->
<g id="node28" class="node">
<title>@rules_pkg//pkg/private:private_stamp_detect\n//onyx/cmd/cli:onyx</title>
<polygon fill="#ffff00" stroke="#ffff00" points="1515.8683,-208.8019 1236.3225,-208.8019 1236.3225,-167.5981 1515.8683,-167.5981 1515.8683,-208.8019"/>
<text text-anchor="middle" x="1376.0954" y="-192.4" font-family="Times,serif" font-size="14.00" fill="#000000">@rules_pkg//pkg/private:private_stamp_detect</text>
<text text-anchor="middle" x="1376.0954" y="-175.6" font-family="Times,serif" font-size="14.00" fill="#000000">//onyx/cmd/cli:onyx</text>
</g>
<!-- //core&#45;image:app_layer&#45;&gt;@rules_pkg//pkg/private:private_stamp_detect\n//onyx/cmd/cli:onyx -->
<g id="edge32" class="edge">
<title>//core-image:app_layer-&gt;@rules_pkg//pkg/private:private_stamp_detect\n//onyx/cmd/cli:onyx</title>
<path fill="none" stroke="#000000" d="M1343.9981,-261.7028C1349.3998,-249.3329 1356.6874,-232.6443 1362.9532,-218.2956"/>
<polygon fill="#000000" stroke="#000000" points="1366.2977,-219.3825 1367.0921,-208.8175 1359.8827,-216.5811 1366.2977,-219.3825"/>
</g>
<!-- //core&#45;image:_image_write_entrypoint&#45;&gt;@bazel_tools//src/conditions:host_windows -->
<g id="edge30" class="edge">
<title>//core-image:_image_write_entrypoint-&gt;@bazel_tools//src/conditions:host_windows</title>
<path fill="none" stroke="#000000" d="M1606.1195,-261.7028C1658.877,-246.5536 1734.1914,-224.9273 1789.4709,-209.0539"/>
<polygon fill="#000000" stroke="#000000" points="1790.5566,-212.3837 1799.2022,-206.2596 1788.6246,-205.6556 1790.5566,-212.3837"/>
</g>
<!-- @distroless_base//:distroless_base&#45;&gt;@platforms//cpu:arm64 -->
<g id="edge26" class="edge">
<title>@distroless_base//:distroless_base-&gt;@platforms//cpu:arm64</title>
<path fill="none" stroke="#000000" d="M1125.6578,-261.7804C1114.6332,-249.5062 1098.2783,-234.2223 1080.0954,-227 1026.2631,-205.6175 616.4631,-217.0046 559.0954,-209 557.003,-208.708 554.8869,-208.3854 552.7562,-208.0363"/>
<polygon fill="#000000" stroke="#000000" points="553.1734,-204.5552 542.7111,-206.2257 551.9316,-211.4442 553.1734,-204.5552"/>
</g>
<!-- @distroless_base//:distroless_base&#45;&gt;@platforms//cpu:x86_64 -->
<g id="edge24" class="edge">
<title>@distroless_base//:distroless_base-&gt;@platforms//cpu:x86_64</title>
<path fill="none" stroke="#000000" d="M1140.0954,-261.7028C1140.0954,-248.7805 1140.0954,-231.1454 1140.0954,-216.3881"/>
<polygon fill="#000000" stroke="#000000" points="1143.5955,-216.2596 1140.0954,-206.2596 1136.5955,-216.2597 1143.5955,-216.2596"/>
</g>
<!-- @@rules_oci~~oci~distroless_base_linux_arm64//:distroless_base_linux_arm64\n@@rules_oci~~oci~distroless_base_linux_amd64//:distroless_base_linux_amd64 -->
<g id="node25" class="node">
<title>@@rules_oci~~oci~distroless_base_linux_arm64//:distroless_base_linux_arm64\n@@rules_oci~~oci~distroless_base_linux_amd64//:distroless_base_linux_amd64</title>
<polygon fill="none" stroke="#000000" points="1043.973,-208.8019 568.2178,-208.8019 568.2178,-167.5981 1043.973,-167.5981 1043.973,-208.8019"/>
<text text-anchor="middle" x="806.0954" y="-192.4" font-family="Times,serif" font-size="14.00" fill="#000000">@@rules_oci~~oci~distroless_base_linux_arm64//:distroless_base_linux_arm64</text>
<text text-anchor="middle" x="806.0954" y="-175.6" font-family="Times,serif" font-size="14.00" fill="#000000">@@rules_oci~~oci~distroless_base_linux_amd64//:distroless_base_linux_amd64</text>
</g>
<!-- @distroless_base//:distroless_base&#45;&gt;@@rules_oci~~oci~distroless_base_linux_arm64//:distroless_base_linux_arm64\n@@rules_oci~~oci~distroless_base_linux_amd64//:distroless_base_linux_amd64 -->
<g id="edge25" class="edge">
<title>@distroless_base//:distroless_base-&gt;@@rules_oci~~oci~distroless_base_linux_arm64//:distroless_base_linux_arm64\n@@rules_oci~~oci~distroless_base_linux_amd64//:distroless_base_linux_amd64</title>
<path fill="none" stroke="#000000" d="M1034.8092,-272.155C953.4978,-265.453 852.1284,-255.0454 835.682,-243.8 826.7462,-237.69 820.2969,-227.9907 815.7474,-218.3919"/>
<polygon fill="#000000" stroke="#000000" points="818.8931,-216.8418 811.8094,-208.9632 812.4338,-219.5397 818.8931,-216.8418"/>
<text text-anchor="middle" x="986.3021" y="-231.2" font-family="Times,serif" font-size="14.00" fill="#000000">@@platforms//cpu:arm64@@platforms//cpu:x86_64</text>
</g>
</g>
</svg>