<?xml version="1.0" encoding="UTF-8" standalone="no"?>
<svg
   viewBox="0 0 512 512"
   version="1.1"
   id="svg1"
   sodipodi:docname="icon-externallink.svg"
   inkscape:version="1.3 (0e150ed6c4, 2023-07-21)"
   xmlns:inkscape="http://www.inkscape.org/namespaces/inkscape"
   xmlns:sodipodi="http://sodipodi.sourceforge.net/DTD/sodipodi-0.dtd"
   xmlns="http://www.w3.org/2000/svg"
   xmlns:svg="http://www.w3.org/2000/svg">
  <defs
     id="defs1" />
  <sodipodi:namedview
     id="namedview1"
     pagecolor="#ffffff"
     bordercolor="#666666"
     borderopacity="1.0"
     inkscape:showpageshadow="2"
     inkscape:pageopacity="0.0"
     inkscape:pagecheckerboard="0"
     inkscape:deskcolor="#d1d1d1"
     inkscape:zoom="0.4609375"
     inkscape:cx="254.91525"
     inkscape:cy="254.91525"
     inkscape:window-width="841"
     inkscape:window-height="1309"
     inkscape:window-x="4260"
     inkscape:window-y="42"
     inkscape:window-maximized="0"
     inkscape:current-layer="svg1" />
  <!--!Font Awesome Free 6.6.0 by @fontawesome - https://fontawesome.com License - https://fontawesome.com/license/free Copyright 2024 Fonticons, Inc.-->
  <path
     id="path1"
     d="m 358.77344,18.013672 c -13.43127,0.02984 -26.86508,0.0083 -40.29475,0.0703 -6.30967,0.590288 -11.85634,6.002641 -12.39408,12.354962 -0.63729,5.41493 2.14309,11.144225 6.99783,13.730417 2.78542,1.589146 6.06771,2.055996 9.23162,1.834547 41.27357,-0.0012 82.54714,-0.0029 123.82071,-0.0039 -77.58425,77.6241 -155.15829,155.25839 -232.72071,232.9043 -4.37404,4.93481 -4.52617,13.08569 -0.18331,18.09176 3.29603,3.99957 8.90432,5.98752 13.96345,4.7205 3.21381,-0.70318 5.99963,-2.68363 8.15145,-5.11903 C 312.23039,219.675 389.1155,142.75285 466,65.830078 c 0.009,42.539062 -0.0446,85.078242 0.0781,127.617192 0.55019,6.39314 6.07662,12.01299 12.5113,12.48403 5.08013,0.5283 10.41382,-1.89338 13.13069,-6.26634 1.84919,-2.79386 2.51346,-6.22797 2.27213,-9.53762 -0.004,-53.20307 0.0524,-106.407468 -0.0743,-159.609671 -0.5588,-6.300623 -5.94363,-11.851017 -12.27917,-12.41416 -2.8582,-0.218451 -5.73224,-0.05095 -8.59696,-0.103662 -38.08946,-1.33e-4 -76.17891,-0.0081 -114.26836,0.01383 z M 191.13086,50.001953 c -36.94282,0.01497 -73.88584,-0.04149 -110.828514,0.06706 -3.915035,-0.04058 -7.832483,0.216104 -11.672516,0.974918 -5.993486,1.114833 -11.810983,3.140883 -17.221627,5.9463 -0.32777,0.17545 -1.014062,0.534136 -1.476391,0.795384 -9.809556,5.380434 -18.036032,13.534327 -23.61799,23.221249 -4.81731,8.274232 -7.672115,17.684972 -8.179056,27.250943 -0.09965,1.372 -0.09088,2.97985 -0.117965,4.44567 -0.08105,12.89946 -0.01115,25.79954 -0.03119,38.69925 0.0174,94.00007 0.0224,188.00039 0.05576,282.0003 0.230879,16.13083 7.249109,31.97272 18.836844,43.16138 2.614531,2.55103 5.487244,4.82905 8.512411,6.87309 0.680974,0.4575 1.609908,1.05965 2.41075,1.54082 5.588154,3.41964 11.914863,5.97907 18.177141,7.42793 1.127914,0.2584 2.16286,0.47506 3.355468,0.68164 0.960421,0.16274 1.731089,0.27727 2.730394,0.40477 4.225304,0.56747 8.375907,0.48176 12.630511,0.50072 38.286431,0.0182 76.572941,-0.003 114.859411,7.8e-4 67.55945,-0.002 135.11912,-0.0227 202.67843,-0.0491 18.00295,-0.52813 35.56058,-9.45846 46.57261,-23.71451 4.93448,-6.32315 8.64374,-13.60049 10.84896,-21.31261 0.12681,-0.45791 0.3562,-1.2626 0.49946,-1.86323 1.33459,-5.16889 1.85278,-10.51536 1.82907,-15.84547 0.0675,-7.20757 -0.0412,-14.41561 0.0169,-21.62333 -0.0118,-30.3891 0.029,-60.77973 -0.0903,-91.16781 -0.62312,-6.37856 -6.17885,-11.9535 -12.62056,-12.35441 -4.77854,-0.45808 -9.74216,1.68151 -12.54954,5.60453 -2.08433,2.80622 -2.96902,6.37687 -2.7336,9.84112 -0.0304,37.6192 0.0539,75.23916 -0.0956,112.85782 -0.79034,13.56941 -10.65646,26.06664 -23.64139,30.05045 -5.6004,1.79292 -11.54605,1.66482 -17.35507,1.57462 -37.83031,0.0157 -75.66183,-4.8e-4 -113.49261,0.002 -67.04657,-0.003 -134.09348,-0.0211 -201.13984,-0.0433 -13.493345,-0.52852 -26.097103,-10.03033 -30.410765,-22.81138 -1.843129,-5.18219 -1.984706,-10.74964 -1.883867,-16.1901 0.04189,-8.97817 -0.0018,-17.95709 0.01473,-26.93563 0.0031,-96.57561 0.01344,-193.15156 0.04748,-289.72695 0.528189,-13.51817 10.062496,-26.143269 22.874826,-30.441322 5.178409,-1.825518 10.735767,-1.960746 16.167668,-1.861067 8.43896,0.04701 16.878698,-0.0024 25.318058,0.01528 27.72463,-0.0033 55.45084,0.0183 83.17442,-0.09077 6.37208,-0.621806 11.94524,-6.176054 12.35453,-12.608291 0.49193,-5.029464 -1.9197,-10.280782 -6.22762,-12.988588 -2.51779,-1.657061 -5.57314,-2.459887 -8.57985,-2.310395 z" />
</svg>
